<svg height="16" viewBox="0 0 123 16" width="123" xmlns="http://www.w3.org/2000/svg"><path d="m175.495 29.266-2.304-2.306 2.276-2.278 2.304 2.306zm-90.495.665h4.073c0 3.337 2.735 6.042 6.11 6.042 3.373 0 6.108-2.705 6.108-6.042h4.073c0 5.561-4.558 10.069-10.182 10.069-5.622 0-10.182-4.508-10.182-10.069zm10.194-4.85 2.88 2.883-2.845 2.848-2.88-2.883zm32.57 10.265v-5.415h3.26v9.465h-3.26v-1.167a3.674 3.674 0 0 1 -2.85 1.346c-2.017 0-3.654-1.61-3.666-3.602v-6.043h3.259v5.415c0 .89.729 1.611 1.629 1.611s1.629-.721 1.629-1.61zm33.193-.582h.002v4.632h-2.648v-.874a4.098 4.098 0 0 1 -2.557.928c-2.812 0-4.978-2.062-4.978-4.786 0-2.725 2.28-4.934 5.092-4.934 2.811 0 5.09 2.209 5.09 4.934v.1zm-4.988 2.014c1.181 0 2.139-.992 2.139-2.215s-.958-2.215-2.139-2.215c-1.18 0-2.138.992-2.138 2.215s.957 2.215 2.138 2.215zm27.594-6.847h2.036v2.618h-2.036v2.797h.01c.089.795.688 1.41 1.415 1.41.219 0 .426-.056.611-.155v2.597a3.684 3.684 0 0 1 -1.629.377c-2.017 0-3.653-1.61-3.665-3.602v-3.424h-1.63v-2.618h1.63v-3.02h3.258zm-34.008 6.25v3.222h-3.259v-5.415c0-.89-.729-1.611-1.629-1.611s-1.629.721-1.629 1.61v5.416h-3.258v-5.415c0-.89-.73-1.611-1.63-1.611s-1.628.721-1.628 1.61v5.416h-3.259v-9.465h3.259v1.167a3.674 3.674 0 0 1 2.85-1.346c1.206 0 2.276.576 2.944 1.464a4.082 4.082 0 0 1 3.166-1.493c2.25 0 4.073 1.803 4.073 4.027zm-33.601 3.215v-5.416c0-.89-.73-1.611-1.63-1.611s-1.629.721-1.629 1.61v5.416h-3.258v-12.485h3.258v4.187a3.674 3.674 0 0 1 2.851-1.346c2.017 0 3.654 1.611 3.666 3.603v6.04h-3.258zm53.15-.022v-5.415c0-.89-.73-1.611-1.629-1.611-.9 0-1.629.721-1.629 1.61v5.416h-3.258v-9.465h3.258v1.167a3.674 3.674 0 0 1 2.851-1.346c2.017 0 3.653 1.61 3.666 3.603v6.04h-3.259zm4.888.022v-9.466h3.258v9.465h-3.258zm22.938-3.826h-7.114c.293.946 1.03 1.61 2.198 1.61.797 0 1.393-.308 1.784-.805h2.931c-.636 1.881-2.348 3.222-4.817 3.222-3.169 0-5.09-2.209-5.09-4.933 0-2.725 2.279-4.934 5.09-4.934 2.812 0 5.091 2.209 5.091 4.934 0 .31-.024.612-.073.906zm-7.134-2.014h4.436c-.258-.946-.938-1.61-2.218-1.61s-1.96.664-2.218 1.61zm15.147 2.014h2.973c-.43 2.292-2.463 4.027-4.905 4.027-2.756 0-4.99-2.209-4.99-4.933 0-2.725 2.234-4.934 4.99-4.934 2.37 0 4.354 1.635 4.863 3.826h-3.041a2.142 2.142 0 0 0 -1.822-1.007c-1.181 0-2.138.947-2.138 2.115 0 1.167.957 2.114 2.138 2.114a2.14 2.14 0 0 0 1.932-1.208z" fill="#fff" fill-rule="evenodd" transform="translate(-85 -24)"/></svg>